<?xml version="1.0" encoding="UTF-8" standalone="no"?>
<!-- Generator: Adobe Illustrator 16.0.0, SVG Export Plug-In . SVG Version: 6.00 Build 0)  -->
<svg version="1.1" id="Layer_1" x="0px" y="0px" width="949.45398" height="387.328" viewBox="0 0 949.45398 387.328" enable-background="new 0 0 1000 387.328" xml:space="preserve" sodipodi:docname="Sonic_The_Hedgehog.svg" inkscape:version="1.1.2 (b8e25be833, 2022-02-05)" xmlns:inkscape="http://www.inkscape.org/namespaces/inkscape" xmlns:sodipodi="http://sodipodi.sourceforge.net/DTD/sodipodi-0.dtd" xmlns:xlink="http://www.w3.org/1999/xlink" xmlns="http://www.w3.org/2000/svg" xmlns:svg="http://www.w3.org/2000/svg"><defs id="defs543"/><sodipodi:namedview id="namedview541" pagecolor="#ffffff" bordercolor="#666666" borderopacity="1.0" inkscape:pageshadow="2" inkscape:pageopacity="0.0" inkscape:pagecheckerboard="0" showgrid="false" inkscape:zoom="0.977" inkscape:cx="500" inkscape:cy="193.96111" inkscape:window-width="1128" inkscape:window-height="682" inkscape:window-x="-6" inkscape:window-y="-6" inkscape:window-maximized="1" inkscape:current-layer="g538"/>
<g id="g538">
	<path fill="#ffffff" d="m 938.933,253.446 c 1.262,-1.117 2.402,-2.411 3.318,-3.867 1.781,-2.854 2.711,-6.122 2.711,-9.423 0,-1.812 -0.281,-3.623 -0.852,-5.399 0,0 -28.082,-87.686 -31.025,-96.884 2.672,-9.384 30.42,-107.36 30.42,-107.36 0.443,-1.58 0.674,-3.212 0.674,-4.832 0,-3.347 -0.955,-6.664 -2.785,-9.557 -2.74,-4.262 -7.168,-7.155 -12.174,-7.967 -1.127,-0.172 -27.842,-4.418 -41.604,-6.018 -5.518,-0.616 -34.633,-3.666 -64.645,-1.033 -22.375,1.949 -43.293,8.931 -61.461,20.14 v -3.503 c 0,-4.705 -1.883,-9.201 -5.199,-12.538 C 752.985,1.88 748.462,0 743.767,0 h -213.91 c -1.581,0 -2.988,0.521 -4.455,0.905 C 523.699,0.365 521.913,0 520.062,0 H 403.077 c -9.809,0 -17.746,7.957 -17.746,17.744 v 0.068 C 361.143,4.359 332.038,-1.718 300.299,0.615 c -21.583,1.574 -42.685,8.354 -61.211,19.337 -1.823,-1.397 -3.935,-2.46 -6.21,-3.056 L 208.536,10.435 C 207.138,10.067 194.408,6.73 179.777,4.473 162.736,1.85 140.227,-0.956 117.313,0.752 89.297,2.795 49.196,9.452 24.671,43.474 12.402,60.411 6.173,80.684 6.173,103.752 l 0.511,11.215 c 0.01,0.261 0.02,0.482 0.047,0.743 1.737,19.615 8.121,35.896 18.585,48.913 -0.049,0.147 -0.28,0.899 -0.28,0.899 -0.086,0.316 -19.905,72.764 -19.905,72.764 -0.425,1.524 -0.637,3.104 -0.637,4.669 0,3.434 0.994,6.81 2.903,9.739 0.404,0.608 0.925,1.14 1.398,1.678 C 3.56,257.467 0,263.11 0,269.631 v 99.95 c 0,9.801 7.947,17.747 17.746,17.747 H 931.71 c 9.797,0 17.744,-7.946 17.744,-17.747 v -99.95 c 0.001,-7.225 -4.329,-13.415 -10.521,-16.185" id="path277"/>
	<g id="g294">
		<defs id="defs280">
			<rect id="SVGID_1_" x="17.746" y="269.64099" width="913.96399" height="99.940002"/>
		</defs>
		<clipPath id="SVGID_2_">
			<use xlink:href="#SVGID_1_" overflow="visible" id="use282" x="0" y="0" width="100%" height="100%"/>
		</clipPath>
		
			<linearGradient id="SVGID_3_" gradientUnits="userSpaceOnUse" x1="309.68799" y1="321.52731" x2="319.56519" y2="321.52731" gradientTransform="matrix(0,9.8585,9.8585,0,-2695.0481,-2782.6506)">
			<stop offset="0" style="stop-color:#E21F26" id="stop285"/>
			<stop offset="0.239" style="stop-color:#C91D24" id="stop287"/>
			<stop offset="1" style="stop-color:#88171A" id="stop289"/>
		</linearGradient>
		<rect x="17.746" y="269.64099" clip-path="url(#SVGID_2_)" fill="url(#SVGID_3_)" width="913.96399" height="99.940002" id="rect292" style="fill:url(#SVGID_3_)"/>
	</g>
	<polygon fill="#010101" points="82.67,302.314 70.344,302.314 70.344,353.332 49.591,353.332 49.591,302.314 37.323,302.314 37.323,289.555 82.67,289.555 " id="polygon296"/>
	<polygon fill="#010101" points="162.88,353.332 142.135,353.332 142.135,326.539 135.915,326.539 135.915,353.332 115.171,353.332 115.171,289.555 135.915,289.555 135.915,312.353 142.135,312.353 142.135,289.555 162.88,289.555 " id="polygon298"/>
	<polygon fill="#010101" points="233.832,289.555 233.832,302.314 219.983,302.314 219.983,314.408 232.944,314.408 232.944,326.529 219.983,326.529 219.983,340.553 235.202,340.553 235.202,353.332 199.229,353.332 199.229,289.555 " id="polygon300"/>
	<polygon fill="#010101" points="359.244,353.332 338.481,353.332 338.481,326.539 332.279,326.539 332.279,353.332 311.525,353.332 311.525,289.555 332.279,289.555 332.279,312.353 338.481,312.353 338.481,289.555 359.244,289.555 " id="polygon302"/>
	<polygon fill="#010101" points="430.196,289.555 430.196,302.314 416.356,302.314 416.356,314.408 429.308,314.408 429.308,326.529 416.356,326.529 416.356,340.553 431.566,340.553 431.566,353.332 395.593,353.332 395.593,289.555 " id="polygon304"/>
	<path fill="#010101" d="m 491.456,301.03 c 0.819,0.388 1.341,0.983 1.582,1.795 0.211,0.821 0.337,2.662 0.337,5.556 v 24.766 c 0,4.262 -0.337,6.865 -1.033,7.83 -0.694,0.954 -2.527,1.446 -5.526,1.446 v -41.95 c 2.267,0 3.821,0.182 4.64,0.557 m 0.78,52.302 c 4.977,0 8.67,-0.222 11.15,-0.665 2.47,-0.427 4.532,-1.176 6.21,-2.277 1.669,-1.089 2.854,-2.604 3.519,-4.532 0.678,-1.929 1.014,-5.748 1.014,-11.476 v -22.335 c 0,-6.038 -0.23,-10.088 -0.693,-12.154 -0.463,-2.063 -1.609,-3.936 -3.441,-5.613 -1.854,-1.688 -4.535,-2.874 -8.064,-3.627 -3.53,-0.729 -10.31,-1.098 -20.339,-1.098 h -15.517 v 63.777 z" id="path306"/>
	<path fill="#010101" d="m 596.318,310.271 v 2.767 h -20.735 v -5.793 c 0,-3.656 -0.202,-5.943 -0.6,-6.859 -0.397,-0.915 -1.343,-1.378 -2.815,-1.378 -1.283,0 -2.15,0.385 -2.613,1.176 -0.455,0.792 -0.697,2.815 -0.697,6.077 v 30.608 c 0,2.854 0.242,4.747 0.697,5.652 0.463,0.887 1.379,1.35 2.768,1.35 1.494,0 2.537,-0.521 3.065,-1.522 0.55,-1.042 0.821,-3.029 0.821,-5.998 v -7.563 h -4.197 v -9.684 h 24.307 v 34.229 H 583.26 l -1.91,-4.581 c -1.426,1.968 -3.212,3.453 -5.354,4.435 -2.16,0.983 -4.707,1.476 -7.62,1.476 -3.479,0 -6.751,-0.665 -9.788,-2.033 -3.037,-1.343 -5.35,-3.03 -6.924,-5.015 -1.58,-1.997 -2.564,-4.089 -2.961,-6.288 -0.395,-2.18 -0.58,-5.478 -0.58,-9.856 v -18.96 c 0,-6.086 0.396,-10.515 1.225,-13.271 0.82,-2.76 3.187,-5.285 7.07,-7.572 3.896,-2.304 8.932,-3.46 15.111,-3.46 6.087,0 11.131,1.01 15.132,3.007 4.005,1.987 6.628,4.359 7.843,7.1 1.214,2.754 1.814,6.748 1.814,11.956" id="path308"/>
	<polygon fill="#010101" points="666.99,289.555 666.99,302.314 653.128,302.314 653.128,314.408 666.1,314.408 666.1,326.529 653.128,326.529 653.128,340.553 668.369,340.553 668.369,353.332 632.394,353.332 632.394,289.555 " id="polygon310"/>
	<polygon fill="#010101" points="750.613,353.332 729.858,353.332 729.858,326.539 723.648,326.539 723.648,353.332 702.902,353.332 702.902,289.555 723.648,289.555 723.648,312.353 729.858,312.353 729.858,289.555 750.613,289.555 " id="polygon312"/>
	<path fill="#010101" d="m 811.787,342.367 c -0.397,1.011 -1.293,1.503 -2.721,1.503 -1.371,0 -2.248,-0.434 -2.623,-1.301 -0.385,-0.87 -0.58,-3.153 -0.58,-6.858 V 305.94 c 0,-3.278 0.291,-5.256 0.881,-5.93 0.566,-0.668 1.387,-1.004 2.485,-1.004 1.284,0 2.114,0.414 2.538,1.245 0.404,0.827 0.615,2.727 0.615,5.688 v 29.298 c 0,3.772 -0.211,6.147 -0.595,7.13 M 832.539,302.2 c -0.404,-2.636 -1.629,-5.063 -3.691,-7.292 -2.086,-2.229 -4.803,-3.907 -8.211,-5.015 -3.402,-1.131 -7.23,-1.678 -11.521,-1.678 -4.502,0 -8.439,0.586 -11.814,1.772 -3.385,1.176 -6.076,2.873 -8.064,5.082 -1.996,2.21 -3.17,4.641 -3.558,7.293 -0.374,2.681 -0.558,7.223 -0.558,13.615 v 10.919 c 0,6.568 0.189,11.156 0.587,13.789 0.395,2.606 1.63,5.054 3.694,7.292 2.063,2.219 4.822,3.896 8.205,5.015 3.414,1.11 7.246,1.678 11.508,1.678 4.503,0 8.459,-0.597 11.834,-1.772 3.383,-1.186 6.074,-2.884 8.061,-5.093 1.994,-2.199 3.174,-4.63 3.549,-7.302 0.375,-2.652 0.57,-7.204 0.57,-13.606 v -10.919 c -0.002,-6.558 -0.204,-11.156 -0.591,-13.778" id="path314"/>
	<path fill="#010101" d="m 915.333,310.271 v 2.767 h -20.762 v -5.793 c 0,-3.656 -0.195,-5.943 -0.59,-6.859 -0.387,-0.915 -1.322,-1.378 -2.805,-1.378 -1.283,0 -2.15,0.385 -2.605,1.176 -0.473,0.792 -0.695,2.815 -0.695,6.077 v 30.608 c 0,2.854 0.223,4.747 0.695,5.652 0.455,0.887 1.367,1.35 2.75,1.35 1.512,0 2.553,-0.521 3.084,-1.522 0.541,-1.042 0.818,-3.029 0.818,-5.998 v -7.563 h -4.193 v -9.684 h 24.303 v 34.229 h -13.064 l -1.93,-4.581 c -1.41,1.968 -3.205,3.453 -5.344,4.435 -2.15,0.983 -4.688,1.476 -7.621,1.476 -3.482,0 -6.74,-0.665 -9.777,-2.033 -3.037,-1.343 -5.354,-3.03 -6.928,-5.015 -1.58,-1.997 -2.561,-4.089 -2.947,-6.288 -0.408,-2.18 -0.609,-5.478 -0.609,-9.856 v -18.96 c 0,-6.086 0.422,-10.515 1.238,-13.271 0.826,-2.76 3.18,-5.285 7.076,-7.572 3.883,-2.304 8.932,-3.46 15.102,-3.46 6.086,0 11.121,1.01 15.131,3.007 4.012,1.987 6.625,4.359 7.844,7.1 1.21,2.754 1.829,6.748 1.829,11.956" id="path316"/>
	<polygon fill="#ffffff" points="79.469,298.658 67.143,298.658 67.143,349.656 46.399,349.656 46.399,298.658 34.132,298.658 34.132,285.889 79.469,285.889 " id="polygon318"/>
	<polygon fill="#ffffff" points="159.679,349.656 138.943,349.656 138.943,322.877 132.714,322.877 132.714,349.656 111.968,349.656 111.968,285.889 132.714,285.889 132.714,308.69 138.943,308.69 138.943,285.889 159.679,285.889 " id="polygon320"/>
	<polygon fill="#ffffff" points="230.631,285.889 230.631,298.648 216.782,298.648 216.782,310.753 229.743,310.753 229.743,322.877 216.782,322.877 216.782,336.897 232,336.897 232,349.656 196.026,349.656 196.026,285.889 " id="polygon322"/>
	<polygon fill="#ffffff" points="356.043,349.656 335.288,349.656 335.288,322.877 329.097,322.877 329.097,349.656 308.324,349.656 308.324,285.889 329.097,285.889 329.097,308.69 335.288,308.69 335.288,285.889 356.043,285.889 " id="polygon324"/>
	<polygon fill="#ffffff" points="427.004,285.889 427.004,298.648 413.146,298.648 413.146,310.753 426.117,310.753 426.117,322.877 413.146,322.877 413.146,336.897 428.373,336.897 428.373,349.656 392.4,349.656 392.4,285.889 " id="polygon326"/>
	<path fill="#ffffff" d="m 488.253,297.368 c 0.82,0.384 1.351,0.98 1.572,1.792 0.231,0.831 0.347,2.672 0.347,5.564 V 329.5 c 0,4.242 -0.347,6.849 -1.031,7.81 -0.694,0.965 -2.527,1.431 -5.526,1.431 v -41.953 c 2.276,0 3.819,0.202 4.638,0.58 m 0.772,52.288 c 4.985,0 8.68,-0.212 11.167,-0.635 2.46,-0.443 4.522,-1.196 6.201,-2.288 1.671,-1.088 2.844,-2.612 3.521,-4.542 0.674,-1.909 1.01,-5.747 1.01,-11.476 V 308.38 c 0,-6.047 -0.228,-10.088 -0.69,-12.153 -0.456,-2.063 -1.603,-3.933 -3.447,-5.61 -1.851,-1.679 -4.53,-2.874 -8.061,-3.627 -3.538,-0.733 -10.309,-1.102 -20.33,-1.102 H 462.87 v 63.768 z" id="path328"/>
	<path fill="#ffffff" d="m 593.113,306.605 v 2.76 h -20.742 v -5.787 c 0,-3.666 -0.196,-5.943 -0.588,-6.849 -0.396,-0.926 -1.342,-1.398 -2.809,-1.398 -1.289,0 -2.17,0.395 -2.622,1.196 -0.453,0.782 -0.685,2.806 -0.685,6.066 v 30.602 c 0,2.864 0.231,4.754 0.685,5.66 0.452,0.905 1.388,1.342 2.767,1.342 1.515,0 2.537,-0.501 3.075,-1.534 0.554,-1.023 0.815,-3.021 0.815,-5.979 v -7.563 h -4.191 v -9.693 h 24.295 v 34.228 h -13.057 l -1.909,-4.562 c -1.427,1.958 -3.203,3.444 -5.354,4.428 -2.15,0.994 -4.704,1.486 -7.608,1.486 -3.489,0 -6.76,-0.697 -9.791,-2.046 -3.047,-1.35 -5.35,-3.008 -6.92,-5.015 -1.594,-1.987 -2.568,-4.1 -2.965,-6.279 -0.395,-2.189 -0.587,-5.486 -0.587,-9.866 v -18.949 c 0,-6.087 0.397,-10.505 1.216,-13.281 0.837,-2.75 3.189,-5.274 7.08,-7.578 3.902,-2.297 8.928,-3.435 15.111,-3.435 6.074,0 11.131,1.004 15.131,2.979 4.012,1.997 6.625,4.369 7.83,7.109 1.225,2.747 1.823,6.732 1.823,11.958" id="path330"/>
	<polygon fill="#ffffff" points="663.796,285.889 663.796,298.648 649.936,298.648 649.936,310.753 662.898,310.753 662.898,322.877 649.936,322.877 649.936,336.897 665.166,336.897 665.166,349.656 629.194,349.656 629.194,285.889 " id="polygon332"/>
	<polygon fill="#ffffff" points="747.41,349.656 726.667,349.656 726.667,322.877 720.445,322.877 720.445,349.656 699.703,349.656 699.703,285.889 720.445,285.889 720.445,308.69 726.667,308.69 726.667,285.889 747.41,285.889 " id="polygon334"/>
	<path fill="#ffffff" d="m 808.593,338.722 c -0.396,0.994 -1.303,1.482 -2.721,1.482 -1.388,0 -2.244,-0.424 -2.633,-1.29 -0.374,-0.87 -0.576,-3.164 -0.576,-6.868 v -29.771 c 0,-3.277 0.297,-5.255 0.877,-5.93 0.57,-0.665 1.397,-1.003 2.486,-1.003 1.283,0 2.123,0.403 2.537,1.254 0.414,0.808 0.616,2.718 0.616,5.679 v 29.309 c 10e-4,3.762 -0.201,6.134 -0.586,7.138 m 20.742,-40.188 c -0.395,-2.633 -1.629,-5.063 -3.691,-7.282 -2.076,-2.229 -4.803,-3.916 -8.207,-5.034 -3.396,-1.098 -7.234,-1.658 -11.516,-1.658 -4.502,0 -8.438,0.577 -11.824,1.757 -3.385,1.195 -6.066,2.893 -8.064,5.089 -1.983,2.209 -3.17,4.64 -3.545,7.312 -0.377,2.662 -0.56,7.194 -0.56,13.597 v 10.919 c 0,6.568 0.183,11.159 0.587,13.792 0.384,2.623 1.622,5.054 3.685,7.269 2.072,2.238 4.822,3.927 8.214,5.037 3.408,1.108 7.233,1.679 11.508,1.679 4.494,0 8.449,-0.6 11.821,-1.786 3.389,-1.186 6.087,-2.873 8.064,-5.072 1.987,-2.21 3.173,-4.66 3.548,-7.303 0.379,-2.678 0.57,-7.213 0.57,-13.615 v -10.919 c 0,-6.558 -0.191,-11.169 -0.59,-13.782" id="path336"/>
	<path fill="#ffffff" d="m 912.13,306.605 v 2.76 h -20.744 v -5.787 c 0,-3.666 -0.209,-5.943 -0.596,-6.849 -0.395,-0.926 -1.334,-1.398 -2.818,-1.398 -1.281,0 -2.15,0.395 -2.602,1.196 -0.463,0.782 -0.703,2.806 -0.703,6.066 v 30.602 c 0,2.864 0.24,4.754 0.703,5.66 0.451,0.905 1.369,1.342 2.748,1.342 1.523,0 2.545,-0.501 3.078,-1.534 0.557,-1.023 0.828,-3.021 0.828,-5.979 v -7.563 h -4.188 v -9.693 h 24.293 v 34.228 h -13.068 l -1.908,-4.562 c -1.428,1.958 -3.211,3.444 -5.361,4.428 -2.15,0.994 -4.693,1.486 -7.621,1.486 -3.469,0 -6.73,-0.697 -9.777,-2.046 -3.037,-1.35 -5.354,-3.008 -6.914,-5.015 -1.58,-1.987 -2.576,-4.1 -2.961,-6.279 -0.404,-2.189 -0.6,-5.486 -0.6,-9.866 v -18.949 c 0,-6.087 0.416,-10.505 1.238,-13.281 0.816,-2.75 3.18,-5.274 7.066,-7.578 3.906,-2.297 8.941,-3.435 15.115,-3.435 6.094,0 11.127,1.004 15.139,2.979 3.994,1.997 6.607,4.369 7.832,7.109 1.216,2.747 1.821,6.732 1.821,11.958" id="path338"/>
	<path fill="#1d435b" d="m 893.654,140.89 c 0.156,-0.512 31.67,-111.785 31.67,-111.785 l -26.145,-3.848 -15.053,-2.229 c -3.252,-0.326 -32.211,-3.066 -59.496,-0.665 -33.02,2.894 -61.906,17.872 -81.752,42.136 0,-4.271 0.02,-44.768 0.02,-44.768 L 530.938,19.652 V 41.701 C 528.423,36.752 519.789,19.828 519.789,19.828 L 403.964,19.789 V 57.063 C 379.989,30.319 343.813,17.221 301.698,20.319 c -30.929,2.245 -60.807,17.021 -80.886,39.568 1.476,-5.265 6.463,-23.078 6.463,-23.078 l -23.494,-6.22 C 202.45,30.231 190.49,27.135 176.98,25.053 160.902,22.564 139.762,19.911 118.709,21.466 92.351,23.395 59.552,29.123 39.8,56.531 29.877,70.226 24.843,86.852 24.843,105.9 c 0,0.039 0.472,10.348 0.472,10.348 1.774,20.039 8.651,35.085 20.898,46.039 -0.28,0.89 -3.326,10.84 -3.326,10.84 l -19.501,71.251 26.85,3.868 c 2.063,0.3 20.446,2.902 36.348,4.513 17.562,1.756 34.681,1.86 55.56,0.319 26.85,-2.027 50.883,-14.206 65.918,-33.446 2.527,-3.223 4.918,-7.07 7.292,-11.544 22.171,28.535 58.318,45.374 97.086,45.045 35.23,-0.276 69.217,-15.255 91.523,-40.021 V 253 h 106.625 v -18.537 c 2.402,4.725 9.527,18.709 9.527,18.709 l 222.674,-0.039 c 0,0 0.029,-33.771 0.029,-37.59 15.662,18.073 37.293,30.646 62.939,36.183 26.404,5.683 52.184,1.196 74.924,-2.757 l 45.377,-6.868 c 0.002,0.003 -32.242,-100.7 -32.404,-101.211" id="path340"/>
	<path fill="#2a3780" d="m 913.347,216.472 c 0,0 -23.852,-74.278 -24.256,-75.513 2.992,-10.241 6.01,-20.657 6.01,-20.657 l 24.678,-87.549 -21.16,-3.105 -15.053,-2.238 c -3.164,-0.3 -31.807,-2.952 -58.463,-0.616 -41.024,3.568 -69.678,24.57 -86.594,51.024 L 738.548,24.187 535.454,24.093 V 60.16 C 530.515,50.476 517.148,24.254 517.148,24.254 L 408.477,24.234 V 69.322 C 386.19,37.727 348.25,21.371 302.112,24.746 c -37.149,2.701 -72.313,23.772 -89.594,53.68 -1.012,1.766 -2.015,3.646 -2.979,5.595 l 12.334,-44.074 -19.152,-5.073 c -0.512,-0.117 -12.702,-3.337 -26.338,-5.438 -15.827,-2.45 -36.657,-5.063 -57.257,-3.542 -25.403,1.864 -56.959,7.302 -75.639,33.225 -9.374,12.961 -14.12,28.682 -14.12,46.795 0,3.249 0.145,6.575 0.453,9.97 1.988,22.375 10.311,36.261 21.479,45.231 -1.07,3.483 -4.089,13.31 -4.089,13.31 l -18.131,66.283 21.883,3.154 c 0.79,0.117 19.848,2.854 36.155,4.492 17.282,1.718 34.169,1.835 54.788,0.31 25.615,-1.929 48.471,-13.502 62.746,-31.758 4.117,-5.256 7.436,-10.925 10,-16.934 20.524,30.416 56.458,49.096 97.841,48.75 34.738,-0.29 73.208,-15.421 95.988,-47.814 v 47.662 h 97.762 V 216 c 4.021,7.898 16.695,32.743 16.695,32.743 l 215.508,-0.021 0.02,-46.003 c 14.012,20.967 36.375,37.786 68.307,44.671 25.558,5.5 50.895,1.101 73.238,-2.796 l 13.877,-2.294 c 0.029,-0.02 26.455,-3.838 26.455,-3.838 z" id="path342"/>
	<g id="g361">
		<defs id="defs345">
			<path id="SVGID_4_" d="m 829.414,46.619 c -107.252,9.345 -119.199,159.824 -15.939,182.062 26.982,5.825 55.781,-1.658 80.102,-5.324 1.283,-0.192 3.779,-0.537 3.779,-0.537 l -22.65,-70.539 c 0,0 -1.324,1.708 -2.033,2.555 -4.246,5.063 -9.492,9.944 -14.623,13.782 -13.493,10.058 -28.547,11.167 -41.143,3.76 -22.114,-12.922 -13.676,-39.347 5.555,-56.599 16.328,-14.652 38.193,-22.078 53.479,-4.294 1.033,1.196 2.969,3.897 2.969,3.897 l 18.662,-66.179 c 0,0 -7.357,-1.408 -13.301,-1.984 -4.965,-0.482 -17.832,-1.486 -32.643,-1.486 -7.168,-10e-4 -14.818,0.231 -22.214,0.886"/>
		</defs>
		<clipPath id="SVGID_5_">
			<use xlink:href="#SVGID_4_" overflow="visible" id="use347" x="0" y="0" width="100%" height="100%"/>
		</clipPath>
		
			<linearGradient id="SVGID_6_" gradientUnits="userSpaceOnUse" x1="290.54791" y1="345.32709" x2="300.4263" y2="345.32709" gradientTransform="matrix(0,18.7975,18.7975,0,-5687.397,-5415.5483)">
			<stop offset="0" style="stop-color:#FDF168" id="stop350"/>
			<stop offset="0.2969" style="stop-color:#EDCD52" id="stop352"/>
			<stop offset="0.9597" style="stop-color:#CF822A" id="stop354"/>
			<stop offset="1" style="stop-color:#CD7D29" id="stop356"/>
		</linearGradient>
		<rect x="710.21399" y="45.731998" clip-path="url(#SVGID_5_)" fill="url(#SVGID_6_)" width="187.355" height="188.77299" id="rect359" style="fill:url(#SVGID_6_)"/>
	</g>
	<g id="g380">
		<defs id="defs364">
			<path id="SVGID_7_" d="m 830.599,51.884 c -53.474,4.669 -79.813,45.211 -82.215,83.307 -2.258,36.281 17.553,77.615 66.941,88.272 20.83,4.483 43.646,0.502 63.777,-3.001 0,0 7.916,-1.31 12.016,-1.984 -2.779,-8.614 -13.984,-43.514 -17.91,-55.745 -3.52,3.626 -7.289,7.158 -11.254,10.107 -14.871,11.11 -32.453,12.655 -47.014,4.108 -9.25,-5.399 -14.662,-13.365 -15.633,-23.049 -1.353,-13.493 6.432,-29.627 20.328,-42.106 12.365,-11.091 25.77,-16.761 37.746,-15.988 7.465,0.492 14.063,3.499 19.771,8.706 3.5,-12.411 12.063,-42.791 14.379,-50.959 -3.414,-0.512 -7.051,-1.049 -7.051,-1.049 -2.072,-0.202 -15.768,-1.486 -32.191,-1.486 -6.961,10e-4 -14.416,0.232 -21.69,0.867"/>
		</defs>
		<clipPath id="SVGID_8_">
			<use xlink:href="#SVGID_7_" overflow="visible" id="use366" x="0" y="0" width="100%" height="100%"/>
		</clipPath>
		
			<linearGradient id="SVGID_9_" gradientUnits="userSpaceOnUse" x1="284.35159" y1="330.67191" x2="294.2291" y2="330.67191" gradientTransform="matrix(0,-17.5433,-17.5433,0,6619.9106,5214.1138)">
			<stop offset="0" style="stop-color:#FDEC0A" id="stop369"/>
			<stop offset="0.1932" style="stop-color:#FCE20F" id="stop371"/>
			<stop offset="0.5487" style="stop-color:#F9CB16" id="stop373"/>
			<stop offset="1" style="stop-color:#F5A61C" id="stop375"/>
		</linearGradient>
		<rect x="746.12598" y="51.018002" clip-path="url(#SVGID_8_)" fill="url(#SVGID_9_)" width="145.40601" height="176.92999" id="rect378" style="fill:url(#SVGID_9_)"/>
	</g>
	<g id="g399">
		<defs id="defs383">
			<path id="SVGID_10_" d="M 123.156,45.752 C 95.449,47.766 74.3,53.754 61.925,70.903 c -7.839,10.84 -11.727,25.209 -10.078,43.631 3.346,37.418 26.965,41.103 59.003,45.182 4.966,0.625 10.241,0.811 15.006,1.31 4.918,0.531 6.934,1.554 9.104,4.496 2.344,3.154 1.852,8.263 -0.482,10.733 -1.408,1.496 -3.646,3.144 -7.175,4.089 -8.911,2.372 -23.85,2.392 -36.937,1.649 -8.978,-0.482 -21.737,-2.043 -21.737,-2.043 l -12.297,44.971 c 0,0 19.25,2.766 35.336,4.389 14.727,1.473 30.408,1.802 51.394,0.257 37.371,-2.795 67.17,-30.533 59.784,-73.93 -2.286,-13.385 -8.643,-23.205 -17.611,-29.356 -13.879,-9.527 -52.155,-10.437 -59.832,-13.848 -2.933,-1.304 -4.475,-1.893 -5.526,-3.995 -1.053,-2.102 -2.827,-6.191 0.761,-10.684 1.129,-1.411 3.23,-2.597 6.328,-3.375 9.055,-2.277 25.47,-1.786 39.444,-0.697 9.596,0.752 22.181,2.395 22.181,2.395 l 11.738,-41.954 c 0,0 -11.554,-3.046 -24.333,-5.014 -11.824,-1.834 -26.483,-3.764 -41.46,-3.764 -3.79,0 -7.599,0.137 -11.38,0.407"/>
		</defs>
		<clipPath id="SVGID_11_">
			<use xlink:href="#SVGID_10_" overflow="visible" id="use385" x="0" y="0" width="100%" height="100%"/>
		</clipPath>
		
			<linearGradient id="SVGID_12_" gradientUnits="userSpaceOnUse" x1="290.51611" y1="313.21881" x2="300.39841" y2="313.21881" gradientTransform="matrix(0,18.7979,18.7979,0,-5757.6353,-5415.7441)">
			<stop offset="0" style="stop-color:#FDF168" id="stop388"/>
			<stop offset="0.2969" style="stop-color:#EDCD52" id="stop390"/>
			<stop offset="0.9597" style="stop-color:#CF822A" id="stop392"/>
			<stop offset="1" style="stop-color:#CD7D29" id="stop394"/>
		</linearGradient>
		<rect x="50.198002" y="45.345001" clip-path="url(#SVGID_11_)" fill="url(#SVGID_12_)" width="160.034" height="185.767" id="rect397" style="fill:url(#SVGID_12_)"/>
	</g>
	<g id="g418">
		<defs id="defs402">
			<path id="SVGID_13_" d="m 124.275,51.037 h -0.01 C 94.128,53.227 76.97,60.102 66.96,74.008 59.476,84.327 56.438,97.81 57.884,114.032 c 2.883,32.325 20.62,36.088 54.374,40.38 l 8.265,0.743 6.616,0.56 c 5.459,0.577 9.298,1.851 12.836,6.614 3.752,5.034 3.329,13.089 -0.906,17.563 -2.507,2.652 -5.757,4.532 -9.664,5.565 -10.223,2.73 -26.636,2.505 -38.605,1.831 0,0 -11.716,-1.098 -17.474,-1.639 -1.66,6.038 -7.368,26.926 -9.528,34.794 6.914,0.945 18.699,2.489 29.135,3.542 15.776,1.58 31.333,1.658 50.447,0.261 18.632,-1.411 35.038,-9.53 45.029,-22.28 9.48,-12.14 12.913,-27.871 9.913,-45.462 -1.958,-11.495 -7.135,-20.205 -15.382,-25.864 -7.859,-5.402 -26.464,-7.917 -40.042,-9.742 -9.886,-1.349 -15.643,-2.18 -18.922,-3.617 l -0.434,-0.202 c -3.009,-1.329 -5.843,-2.574 -7.706,-6.289 -2.989,-5.998 -2.527,-11.515 1.38,-16.396 1.938,-2.408 5.024,-4.164 9.19,-5.207 8.149,-2.043 21.998,-2.323 41.142,-0.828 0,0 12.046,1.291 17.862,1.909 1.678,-5.979 7.04,-25.163 9.045,-32.309 -4.493,-1.043 -11.303,-2.509 -18.537,-3.617 -11.63,-1.802 -26.134,-3.695 -40.727,-3.695 -3.644,0.002 -7.299,0.12 -10.916,0.39"/>
		</defs>
		<clipPath id="SVGID_14_">
			<use xlink:href="#SVGID_13_" overflow="visible" id="use404" x="0" y="0" width="100%" height="100%"/>
		</clipPath>
		
			<linearGradient id="SVGID_15_" gradientUnits="userSpaceOnUse" x1="284.3735" y1="366.0098" x2="294.24741" y2="366.0098" gradientTransform="matrix(0,-17.5434,-17.5434,0,6549.9243,5214.0996)">
			<stop offset="0" style="stop-color:#FDEC0A" id="stop407"/>
			<stop offset="0.1932" style="stop-color:#FCE20F" id="stop409"/>
			<stop offset="0.5487" style="stop-color:#F9CB16" id="stop411"/>
			<stop offset="1" style="stop-color:#F5A61C" id="stop413"/>
		</linearGradient>
		<rect x="56.438" y="50.648998" clip-path="url(#SVGID_14_)" fill="url(#SVGID_15_)" width="144.883" height="174.994" id="rect416" style="fill:url(#SVGID_15_)"/>
	</g>
	<g id="g437">
		<defs id="defs421">
			<polygon id="SVGID_16_" points="721.527,229.566 721.605,44.084 653.572,44.084 653.572,229.566 "/>
		</defs>
		<clipPath id="SVGID_17_">
			<use xlink:href="#SVGID_16_" overflow="visible" id="use423" x="0" y="0" width="100%" height="100%"/>
		</clipPath>
		
			<linearGradient id="SVGID_18_" gradientUnits="userSpaceOnUse" x1="290.4541" y1="339.8555" x2="300.3291" y2="339.8555" gradientTransform="matrix(0,18.7829,18.7829,0,-5695.8726,-5411.4756)">
			<stop offset="0" style="stop-color:#FDF168" id="stop426"/>
			<stop offset="0.2969" style="stop-color:#EDCD52" id="stop428"/>
			<stop offset="0.9597" style="stop-color:#CF822A" id="stop430"/>
			<stop offset="1" style="stop-color:#CD7D29" id="stop432"/>
		</linearGradient>
		<rect x="653.57202" y="44.084" clip-path="url(#SVGID_17_)" fill="url(#SVGID_18_)" width="68.032997" height="185.48199" id="rect435" style="fill:url(#SVGID_18_)"/>
	</g>
	<g id="g456">
		<defs id="defs440">
			<path id="SVGID_19_" d="m 659.62,49.389 v 174.838 h 57.315 c 0,-9.742 0.068,-165.089 0.068,-174.838 z"/>
		</defs>
		<clipPath id="SVGID_20_">
			<use xlink:href="#SVGID_19_" overflow="visible" id="use442" x="0" y="0" width="100%" height="100%"/>
		</clipPath>
		
			<linearGradient id="SVGID_21_" gradientUnits="userSpaceOnUse" x1="284.4248" y1="337.35349" x2="294.29999" y2="337.35349" gradientTransform="matrix(0,-17.5433,-17.5433,0,6606.5894,5213.9814)">
			<stop offset="0" style="stop-color:#FDEC0A" id="stop445"/>
			<stop offset="0.1932" style="stop-color:#FCE20F" id="stop447"/>
			<stop offset="0.5487" style="stop-color:#F9CB16" id="stop449"/>
			<stop offset="1" style="stop-color:#F5A61C" id="stop451"/>
		</linearGradient>
		<rect x="659.62" y="49.389" clip-path="url(#SVGID_20_)" fill="url(#SVGID_21_)" width="57.383999" height="174.84801" id="rect454" style="fill:url(#SVGID_21_)"/>
	</g>
	<g id="g475">
		<defs id="defs459">
			<path id="SVGID_22_" d="m 283.325,166.748 c -24.284,-24.072 14.611,-63.334 37.449,-66.778 20.696,-3.125 36.994,14.141 33.387,35.01 -2.874,16.451 -24.042,37.157 -40.717,39.907 -2.788,0.453 -5.391,0.674 -7.841,0.674 -9.711,0 -16.829,-3.415 -22.278,-8.813 m 22.79,-122.152 c -32.924,2.401 -61.019,21.332 -74.096,43.986 -10.695,18.438 -17.437,47.313 -10.58,74.086 23.078,90.355 165.309,89.149 187.28,-3.251 4.195,-17.745 3.383,-40.911 -2.44,-56.997 -12.297,-33.909 -42.048,-58.222 -89.402,-58.222 -3.481,0 -7.069,0.127 -10.762,0.398"/>
		</defs>
		<clipPath id="SVGID_23_">
			<use xlink:href="#SVGID_22_" overflow="visible" id="use461" x="0" y="0" width="100%" height="100%"/>
		</clipPath>
		
			<linearGradient id="SVGID_24_" gradientUnits="userSpaceOnUse" x1="290.46091" y1="321.9736" x2="300.33551" y2="321.9736" gradientTransform="matrix(0,18.7978,18.7978,0,-5738.6528,-5415.8203)">
			<stop offset="0" style="stop-color:#FDF168" id="stop464"/>
			<stop offset="0.2969" style="stop-color:#EDCD52" id="stop466"/>
			<stop offset="0.9597" style="stop-color:#CF822A" id="stop468"/>
			<stop offset="1" style="stop-color:#CD7D29" id="stop470"/>
		</linearGradient>
		<rect x="214.582" y="44.198002" clip-path="url(#SVGID_23_)" fill="url(#SVGID_24_)" width="198.332" height="208.825" id="rect473" style="fill:url(#SVGID_24_)"/>
	</g>
	<g id="g494">
		<defs id="defs478">
			<path id="SVGID_25_" d="m 280.306,170.488 c -8.843,-8.755 -11.446,-20.465 -7.357,-32.993 7,-21.439 30.986,-40.282 47.758,-42.82 11.379,-1.727 22.365,1.825 30.108,9.732 7.966,8.159 11.381,19.615 9.327,31.468 v 0.01 c -3.279,18.768 -26.05,41.083 -45.105,44.228 -2.99,0.482 -5.873,0.733 -8.641,0.733 -10.408,0 -19.145,-3.47 -26.09,-10.358 M 307.234,49.89 c -29.175,2.111 -56.583,18.331 -69.882,41.325 -8.95,15.45 -16.944,43.081 -10.03,70.111 11.979,46.88 55.048,63.171 88.282,62.901 33.725,-0.28 77.182,-17.748 88.659,-66.064 1.668,-7.058 2.487,-15.004 2.487,-22.951 0,-11.199 -1.621,-22.365 -4.754,-31.006 -12.741,-35.114 -43.284,-54.703 -84.608,-54.703 -3.316,-10e-4 -6.712,0.126 -10.154,0.387"/>
		</defs>
		<clipPath id="SVGID_26_">
			<use xlink:href="#SVGID_25_" overflow="visible" id="use480" x="0" y="0" width="100%" height="100%"/>
		</clipPath>
		
			<linearGradient id="SVGID_27_" gradientUnits="userSpaceOnUse" x1="284.42819" y1="356.5625" x2="294.30688" y2="356.5625" gradientTransform="matrix(0,-17.5435,-17.5435,0,6568.9282,5214.0317)">
			<stop offset="0" style="stop-color:#FDEC0A" id="stop483"/>
			<stop offset="0.1932" style="stop-color:#FCE20F" id="stop485"/>
			<stop offset="0.5487" style="stop-color:#F9CB16" id="stop487"/>
			<stop offset="1" style="stop-color:#F5A61C" id="stop489"/>
		</linearGradient>
		<rect x="220.408" y="49.501999" clip-path="url(#SVGID_26_)" fill="url(#SVGID_27_)" width="186.343" height="174.995" id="rect492" style="fill:url(#SVGID_27_)"/>
	</g>
	<g id="g513">
		<defs id="defs497">
			<path id="SVGID_28_" d="m 430.592,229.434 h 58.722 v -94.34 c 3.135,6.145 48.155,94.473 48.155,94.473 l 78.822,-0.133 V 43.996 h -58.732 v 97.829 C 554.43,135.674 507.772,44.139 507.772,44.139 l -77.179,-0.163 v 185.458 z"/>
		</defs>
		<clipPath id="SVGID_29_">
			<use xlink:href="#SVGID_28_" overflow="visible" id="use499" x="0" y="0" width="100%" height="100%"/>
		</clipPath>
		
			<linearGradient id="SVGID_30_" gradientUnits="userSpaceOnUse" x1="290.43701" y1="332.00391" x2="300.31299" y2="332.00391" gradientTransform="matrix(0,18.7929,18.7929,0,-5715.8682,-5414.459)">
			<stop offset="0" style="stop-color:#FDF168" id="stop502"/>
			<stop offset="0.2969" style="stop-color:#EDCD52" id="stop504"/>
			<stop offset="0.9597" style="stop-color:#CF822A" id="stop506"/>
			<stop offset="1" style="stop-color:#CD7D29" id="stop508"/>
		</linearGradient>
		<rect x="430.59201" y="43.977001" clip-path="url(#SVGID_29_)" fill="url(#SVGID_30_)" width="185.69901" height="185.59" id="rect511" style="fill:url(#SVGID_30_)"/>
	</g>
	<g id="g532">
		<defs id="defs516">
			<polygon id="SVGID_31_" points="504.513,49.454 435.914,49.32 435.914,224.109 483.991,224.109 483.991,112.931 540.719,224.246 610.967,224.109 610.967,49.32 562.888,49.32 562.888,163.988 "/>
		</defs>
		<clipPath id="SVGID_32_">
			<use xlink:href="#SVGID_31_" overflow="visible" id="use518" x="0" y="0" width="100%" height="100%"/>
		</clipPath>
		
			<linearGradient id="SVGID_33_" gradientUnits="userSpaceOnUse" x1="284.4888" y1="345.78909" x2="294.36621" y2="345.78909" gradientTransform="matrix(0,-17.5643,-17.5643,0,6596.9927,5219.9971)">
			<stop offset="0" style="stop-color:#FDEC0A" id="stop521"/>
			<stop offset="0.1932" style="stop-color:#FCE20F" id="stop523"/>
			<stop offset="0.5487" style="stop-color:#F9CB16" id="stop525"/>
			<stop offset="1" style="stop-color:#F5A61C" id="stop527"/>
		</linearGradient>
		<rect x="435.914" y="49.32" clip-path="url(#SVGID_32_)" fill="url(#SVGID_33_)" width="175.05299" height="174.92599" id="rect530" style="fill:url(#SVGID_33_)"/>
	</g>
	
	
</g>
<script xmlns="" id="bw-fido2-page-script"/></svg>